# xmcd CD database file
#
# Track frame offsets:
#	150
#	15345
#	29467
#	49620
#	67917
#	84887
#	102390
#	125682
#	142560
#	165510
#	185927
#	198270
#	220767
#
# Disc length: 3218 seconds
#
# Revision: 1
# Processed by: cddbd v1.5.2PL0 Copyright (c) Steve Scherf et al.
# Submitted via: CDex 1.51
#
DISCID=a40c900d
DTITLE=Chuck Hall Band - Blues Dawgs
DYEAR=1995
DGENRE=Blues
TTITLE0=Learn to Crawl
TTITLE1=Milk Run
TTITLE2=Talk to Me
TTITLE3=Good Mind to Quit You
TTITLE4=Standing in the Doorway
TTITLE5=Baby do you Wanna
TTITLE6=Dont Lose Your Cool
TTITLE7=You Knock Me Out
TTITLE8=Travelin South
TTITLE9=Hear Comes the Heartbreak
TTITLE10=Texturizer
TTITLE11=Little Boy Blue
TTITLE12=Hideaway
EXTD=YEAR: 1995
EXTT0=
EXTT1=
EXTT2=
EXTT3=
EXTT4=
EXTT5=
EXTT6=
EXTT7=
EXTT8=
EXTT9=
EXTT10=
EXTT11=
EXTT12=
PLAYORDER=
